# xmcd
#
# Track frame offsets:
#	183
#	15908
#	32570
#
# Disc length: 705 seconds
#
# Revision: 0
# Processed by: cddbd v1.5.2PL0 Copyright (c) Steve Scherf et al.
# Submitted via: audiograbber 1.83.01
#
DISCID=1202bf03
DTITLE=Nine Below Zero - with Alannah Myles
DYEAR=1994
DGENRE=Rhythm´n´Blues
TTITLE0=I never loved a Man
TTITLE1=Burn Love
TTITLE2=Bleeding Heart
EXTD=
EXTT0=
EXTT1=
EXTT2=
PLAYORDER=
